<svg xmlns="http://www.w3.org/2000/svg" shape-rendering="geometricPrecision" text-rendering="geometricPrecision" image-rendering="optimizeQuality" fill-rule="evenodd" clip-rule="evenodd" viewBox="0 0 424 511.543"><path fill="#262626" fill-rule="nonzero" d="M86.371 413.439c-11.766 0-11.766-17.89 0-17.89h102.733a129.853 129.853 0 00-.316 8.945c0 3.008.112 5.99.316 8.945H86.371zm1.815-147.132H60.568l5.022-82.589h34.488l10.308 42.021h.924l10.308-42.021h34.489l5.021 82.589H133.51l-1.586-40.038h-.925l-10.042 40.038h-20.218l-10.175-40.038h-.792l-1.586 40.038zm126.458-19.953h-18.168v19.953h-25.437v-82.589h41.624c18.94 0 28.409 10.175 28.409 30.526 0 11.188-2.466 19.468-7.399 24.841-1.849 2.026-4.407 3.746-7.664 5.154-3.259 1.409-7.05 2.115-11.365 2.115zm-18.168-41.493v20.35h7.07c3.171 0 5.484-.329 6.937-.991 1.453-.661 2.18-2.18 2.18-4.558v-9.25c0-2.379-.729-3.9-2.18-4.559-1.453-.659-3.768-.992-6.937-.992h-7.07zm92.036 7.929v-9.579c-2.643-.442-6.915-.662-12.818-.662-5.901 0-13.258.926-22.068 2.776l-3.435-18.567c10.747-3.347 21.143-5.022 31.185-5.022 8.634 0 14.888.529 18.764 1.587 3.877 1.056 6.739 2.333 8.589 3.832 4.053 3.435 6.079 8.634 6.079 15.593 0 8.808-3.655 15.151-10.967 19.028v.659c8.72 3.613 13.082 10.176 13.082 19.69 0 4.669-.726 8.656-2.182 11.96-1.453 3.302-3.281 5.858-5.484 7.664-2.202 1.805-5.109 3.236-8.719 4.294-5.376 1.499-12.929 2.246-22.664 2.246-9.733 0-19.491-1.145-29.269-3.435l3.701-20.813c8.367 2.026 15.46 3.039 21.274 3.039 5.815 0 10.791-.263 14.932-.792v-9.448l-22.729-2.246v-19.161l22.729-2.643zM265.809 24.259v29.103c0 65.658 15.314 69.469 69.082 69.469h22.031l-91.113-98.572zm94.336 115.919h-21.48c-61.025 0-90.202-4.092-90.202-86.277V17.347H56.817c-21.693 0-39.47 17.778-39.47 39.472v264.794h201.856a128.538 128.538 0 00-12.518 17.541H17.347v89.824c0 21.622 17.85 39.47 39.47 39.47h149.048a128.452 128.452 0 0012.01 17.347H56.817C25.626 485.795 0 460.171 0 428.978V56.819C0 25.553 25.55 0 56.817 0h206.336a8.656 8.656 0 016.926 3.454l105.073 113.675c2.191 2.367 2.339 4.663 2.339 7.517v166.861a127.423 127.423 0 00-17.346-7.709v-143.62z"/><path fill="red" d="M316.953 297.447c59.119 0 107.047 47.93 107.047 107.049 0 59.118-47.928 107.047-107.047 107.047-59.12 0-107.049-47.929-107.049-107.047 0-59.119 47.929-107.049 107.049-107.049z"/><path fill="#fff" fill-rule="nonzero" d="M334.51 399.621l17.723 6.198c11.721 4.5 23.776-3.795 14.691-14.12-11.057-12.716-27.851-30.19-40.069-41.828-7.589-7.585-11.99-7.651-19.605-.062-13.524 13.279-26.802 28.033-40.021 41.759-9.456 10.28 2.34 18.956 14.583 14.251l17.538-6.135c-1.284 16.628-2.886 32.525-3.857 49.142 0 3.059 2.558 5.504 5.543 5.735 10.534 0 21.291.247 31.797 0 2.982-.231 5.54-2.68 5.54-5.735l-3.863-49.205z"/></svg>